# xmcd
#
# Track frame offsets:
#	150
#	17692
#	39384
#	52690
#	70419
#	82198
#	99773
#	113147
#	126447
#	140387
#	156086
#	173004
#	187723
#	201529
#	221081
#	238772
#
# Disc length: 3430 seconds
#
# Revision: 1
# Processed by: cddbd v1.5.2PL0 Copyright (c) Steve Scherf et al.
# Submitted via: EasyCDDAExtractor 15.3.0.1
#
DISCID=d90d6410
DTITLE=Various Artist - All Time Classic Country Tearjerkers
DYEAR=2003
DGENRE=Country
TTITLE0=Linda Ronstadt - Blue Bayou
TTITLE1=Steve Earle - Little Rock and Roller
TTITLE2=Emmylou Harris - Pledging My Love
TTITLE3=Mark Chesnutt - I Don't Want to Miss a Thing
TTITLE4=Skeeter Davis - End of the World
TTITLE5=Vern Gosdin - First Time Ever I Saw Your Face
TTITLE6=Randy Travis - Old Eight by Ten
TTITLE7=Tammy Wynette - DIVORCE
TTITLE8=Desert Rose Band - He's Back and I'm Blue
TTITLE9=K D Lang - Lock Stock and Teardrops
TTITLE10=Jerry Lee Lewis - Over the Rainbow
TTITLE11=Kenny Rogers - Crazy
TTITLE12=Charlie Rich - Wonderful Tonight
TTITLE13=Alison Krauss - It Wouldn't Have Made Any Difference
TTITLE14=Lee Greenwood - Wind Beneath My Wings
TTITLE15=Beth Nielson Chapman - Sand and Water
EXTD=All Time Classic Country Tearjerkers
EXTT0=
EXTT1=
EXTT2=
EXTT3=
EXTT4=
EXTT5=
EXTT6=
EXTT7=
EXTT8=
EXTT9=
EXTT10=
EXTT11=
EXTT12=
EXTT13=
EXTT14=
EXTT15=
PLAYORDER=
